<svg xmlns="http://www.w3.org/2000/svg" width="768" height="128" viewBox="0 0 768 128">
<defs><linearGradient id="c" x1="0" y1="0" x2="1" y2="1"><stop stop-color="#9a6b48"/><stop offset="1" stop-color="#4a3027"/></linearGradient><linearGradient id="m" x1="0" y1="0" x2="1" y2="1"><stop stop-color="#cfe0cf"/><stop offset="1" stop-color="#566c5a"/></linearGradient></defs>
<g><ellipse cx="64" cy="112" rx="28" ry="7" fill="#151813" opacity=".45"/><path d="M43 92Q32 67 50 48L58 30Q64 20 73 30L83 49Q99 72 87 94L76 108H51Z" fill="url(#m)" stroke="#172019" stroke-width="4"/><circle cx="64" cy="31" r="14" fill="#d2a979" stroke="#30241e" stroke-width="3"/><path d="M51 28Q64 8 78 27L72 34L58 35Z" fill="#332a27"/><path d="M78 62L101 80L94 87L72 72Z" fill="#bcae86"/><path d="M72 72L104 51" stroke="#e2cf9b" stroke-width="4" stroke-linecap="round"/></g>
<g transform="translate(128)"><ellipse cx="64" cy="112" rx="29" ry="7" fill="#151813" opacity=".45"/><path d="M41 94Q31 68 51 48L59 29Q65 19 74 30L84 48Q101 72 87 95L76 109H49Z" fill="url(#m)" stroke="#172019" stroke-width="4"/><circle cx="65" cy="31" r="14" fill="#d2a979" stroke="#30241e" stroke-width="3"/><path d="M51 27Q65 8 79 27L72 34L57 34Z" fill="#332a27"/><path d="M77 62L103 75L96 84L72 72Z" fill="#bcae86"/><path d="M76 71L106 88" stroke="#e2cf9b" stroke-width="4" stroke-linecap="round"/></g>
<g transform="translate(256)"><ellipse cx="64" cy="112" rx="30" ry="7" fill="#151813" opacity=".45"/><path d="M39 94Q31 67 50 48L58 29Q64 18 74 30L85 48Q101 69 88 95L77 109H48Z" fill="url(#m)" stroke="#172019" stroke-width="4"/><circle cx="64" cy="31" r="14" fill="#d2a979" stroke="#30241e" stroke-width="3"/><path d="M50 27Q63 7 79 27L72 34L56 34Z" fill="#332a27"/><path d="M76 60L103 61L101 71L75 71Z" fill="#bcae86"/><path d="M99 61L116 43" stroke="#e2cf9b" stroke-width="4" stroke-linecap="round"/><path d="M100 62L119 66" stroke="#e2cf9b" stroke-width="3"/></g>
<g transform="translate(384)"><ellipse cx="64" cy="112" rx="30" ry="7" fill="#151813" opacity=".45"/><path d="M39 94Q31 67 50 48L58 29Q64 18 74 30L85 48Q101 69 88 95L77 109H48Z" fill="url(#m)" stroke="#172019" stroke-width="4"/><circle cx="64" cy="31" r="14" fill="#d2a979" stroke="#30241e" stroke-width="3"/><path d="M50 27Q63 7 79 27L72 34L56 34Z" fill="#332a27"/><path d="M76 60L100 48" stroke="#bcae86" stroke-width="7" stroke-linecap="round"/><path d="M99 48L117 32" stroke="#e2cf9b" stroke-width="4" stroke-linecap="round"/><path d="M99 48L119 52" stroke="#e2cf9b" stroke-width="3"/></g>
<g transform="translate(512)"><ellipse cx="64" cy="112" rx="32" ry="7" fill="#151813" opacity=".45"/><path d="M37 96Q29 66 49 47L57 28Q64 16 75 29L88 47Q104 70 88 96L78 110H47Z" fill="url(#m)" stroke="#172019" stroke-width="4"/><circle cx="64" cy="30" r="14" fill="#d2a979" stroke="#30241e" stroke-width="3"/><path d="M49 26Q63 6 80 27L72 34L55 34Z" fill="#332a27"/><path d="M78 59L102 40" stroke="#bcae86" stroke-width="8" stroke-linecap="round"/><path d="M101 40L120 21" stroke="#e2cf9b" stroke-width="4" stroke-linecap="round"/><path d="M101 40L123 43" stroke="#e2cf9b" stroke-width="3"/></g>
<g transform="translate(640)"><ellipse cx="64" cy="112" rx="34" ry="7" fill="#151813" opacity=".45"/><path d="M34 97Q27 65 48 45L57 27Q64 14 76 28L91 47Q108 72 89 98L79 110H45Z" fill="url(#m)" stroke="#172019" stroke-width="4"/><circle cx="64" cy="29" r="14" fill="#d2a979" stroke="#30241e" stroke-width="3"/><path d="M49 25Q63 5 81 26L72 34L54 33Z" fill="#332a27"/><path d="M78 57L101 35" stroke="#bcae86" stroke-width="8" stroke-linecap="round"/><path d="M100 35L120 9" stroke="#e2cf9b" stroke-width="4" stroke-linecap="round"/><path d="M101 35L125 39" stroke="#e2cf9b" stroke-width="3"/></g></svg>